<svg width="15" height="12" viewBox="0 0 15 12" fill="none" xmlns="http://www.w3.org/2000/svg">
<path d="M-1.01966e-07 3.4214C0.00479278 2.02128 0.798008 0.780699 2.08728 0.263988C3.2807 -0.214623 4.42139 -0.0336557 5.43747 0.735457C5.94312 1.11882 6.38166 1.58791 6.84657 2.02366C6.95441 2.12367 6.94482 2.20463 6.83938 2.3094C6.72196 2.42369 6.60453 2.53561 6.48711 2.64752C6.36729 2.75944 6.27862 2.75944 6.1564 2.64276C5.81611 2.31892 5.4878 1.98318 5.13073 1.67601C4.38065 1.0331 3.51315 0.780699 2.56177 1.09977C1.64155 1.40694 1.11913 2.10224 0.975342 3.04518C0.829161 3.99287 1.14309 4.7858 1.93151 5.35728C2.43237 5.72159 3.0123 5.80731 3.61859 5.73112C4.31116 5.64301 4.86233 5.28822 5.34162 4.80723C6.36489 3.77619 7.38337 2.74039 8.40664 1.70935C8.77808 1.33313 9.13994 0.942617 9.58088 0.644973C10.2854 0.168743 11.0643 -0.0527048 11.9126 0.0401603C12.6962 0.125882 13.3528 0.485436 13.892 1.04977C14.5726 1.76173 14.8913 2.61657 14.8434 3.59522C14.8266 3.9143 14.7332 4.23337 14.6541 4.54768C14.6062 4.73103 14.4432 4.75961 14.2922 4.63579C14.1748 4.54054 14.0574 4.44767 13.9352 4.35719C13.8178 4.27147 13.789 4.20956 13.8345 4.07383C14.2084 2.96422 13.5829 1.6522 12.5189 1.18549C11.8599 0.894994 11.2033 0.918806 10.5442 1.19264C10.0769 1.38789 9.7055 1.70935 9.36041 2.06414C8.52886 2.91897 7.70209 3.78095 6.86334 4.63102C6.43678 5.06439 6.00782 5.50014 5.54531 5.89303C4.78325 6.54071 3.8822 6.79073 2.88289 6.68358C1.31324 6.50737 0.282777 5.30965 0.0503247 4.0024C0.0167748 3.81191 0.0167748 3.61665 -1.01966e-07 3.4214Z" fill="white"/>
<path fill-rule="evenodd" clip-rule="evenodd" d="M9.37759 4.71945H10.3143H10.3147H11.2514H11.2515H12.1885V5.65237H11.2515H11.2514H10.3147H10.3143H9.37759V4.71945ZM9.37682 5.65247H8.43967V6.5853H7.5029V7.51821H8.43967H8.44005H9.37682V6.58538V6.5853V5.65247ZM1.87978 6.5853H0.942627V7.51821H1.87978V6.5853ZM0.942799 7.51831H0.00564575V8.45114V8.45123V9.38406H0.942799V8.45123V8.45114V7.51831ZM1.87978 9.38406H0.942627V10.317H1.87978V9.38406ZM1.87985 10.317H2.81701V11.2499H1.87985V10.317ZM3.75363 10.317H2.81735V11.2499H3.75363H3.75451H4.69079V10.317H3.75451H3.75363ZM5.62863 9.38406H4.69162V10.317H5.62863H5.62877H6.56579V9.38406H5.62877H5.62863ZM4.69162 10.317H5.62877V11.2499H4.69162V10.317ZM6.56579 8.45114H5.62863V9.38406H6.56579V8.45114ZM7.5029 7.51831H6.56583V8.45114V8.45123V9.38406H7.50298V8.45123H8.43967V9.38406H9.37682V8.45114H8.44005V7.51831H7.50298H7.5029ZM10.3147 5.65247H9.37759V6.58538H10.3147V5.65247ZM9.37759 9.38406H10.3147V10.317H9.37759V9.38406ZM10.3143 10.317H11.2514H11.2515H12.1885V11.2499H11.2515H11.2514H10.3143V10.317ZM13.126 4.71945H12.1889V5.65237H13.126V4.71945ZM12.1889 10.317H13.126V11.2499H12.1889V10.317ZM14.0628 5.65247H13.1256V6.58538H14.0628V5.65247ZM13.1256 9.38406H14.0628V10.317H13.1256V9.38406ZM15 6.5853H14.0629V7.51821H15V6.5853ZM14.0629 7.51831H15V8.45114V8.45123V9.38406H14.0629V8.45123V8.45114V7.51831Z" fill="#DE14FF"/>
</svg>
